<svg class="rich-terminal" viewBox="0 0 994 635.5999999999999" xmlns="http://www.w3.org/2000/svg">
    <!-- Generated with Rich https://www.textualize.io -->
    <style>

    @font-face {
        font-family: "Fira Code";
        src: local("FiraCode-Regular"),
                url("https://cdnjs.cloudflare.com/ajax/libs/firacode/6.2.0/woff2/FiraCode-Regular.woff2") format("woff2"),
                url("https://cdnjs.cloudflare.com/ajax/libs/firacode/6.2.0/woff/FiraCode-Regular.woff") format("woff");
        font-style: normal;
        font-weight: 400;
    }
    @font-face {
        font-family: "Fira Code";
        src: local("FiraCode-Bold"),
                url("https://cdnjs.cloudflare.com/ajax/libs/firacode/6.2.0/woff2/FiraCode-Bold.woff2") format("woff2"),
                url("https://cdnjs.cloudflare.com/ajax/libs/firacode/6.2.0/woff/FiraCode-Bold.woff") format("woff");
        font-style: bold;
        font-weight: 700;
    }

    .terminal-3578293381-matrix {
        font-family: Fira Code, monospace;
        font-size: 20px;
        line-height: 24.4px;
        font-variant-east-asian: full-width;
    }

    .terminal-3578293381-title {
        font-size: 18px;
        font-weight: bold;
        font-family: arial;
    }

    .terminal-3578293381-r1 { fill: #c5c8c6 }
.terminal-3578293381-r2 { fill: #22d3ee;font-weight: bold }
.terminal-3578293381-r3 { fill: #3b4a61 }
.terminal-3578293381-r4 { fill: #f8fafc;font-weight: bold }
.terminal-3578293381-r5 { fill: #cbd5e1 }
.terminal-3578293381-r6 { fill: #f8fafc }
.terminal-3578293381-r7 { fill: #94a3b8 }
.terminal-3578293381-r8 { fill: #22d3ee }
.terminal-3578293381-r9 { fill: #f87171;font-weight: bold }
.terminal-3578293381-r10 { fill: #fbbf24 }
.terminal-3578293381-r11 { fill: #27364c }
.terminal-3578293381-r12 { fill: #0f172a;font-weight: bold;text-decoration: underline; }
.terminal-3578293381-r13 { fill: #0f172a;font-weight: bold }
    </style>

    <defs>
    <clipPath id="terminal-3578293381-clip-terminal">
      <rect x="0" y="0" width="975.0" height="584.5999999999999" />
    </clipPath>
    <clipPath id="terminal-3578293381-line-0">
    <rect x="0" y="1.5" width="976" height="24.65"/>
            </clipPath>
<clipPath id="terminal-3578293381-line-1">
    <rect x="0" y="25.9" width="976" height="24.65"/>
            </clipPath>
<clipPath id="terminal-3578293381-line-2">
    <rect x="0" y="50.3" width="976" height="24.65"/>
            </clipPath>
<clipPath id="terminal-3578293381-line-3">
    <rect x="0" y="74.7" width="976" height="24.65"/>
            </clipPath>
<clipPath id="terminal-3578293381-line-4">
    <rect x="0" y="99.1" width="976" height="24.65"/>
            </clipPath>
<clipPath id="terminal-3578293381-line-5">
    <rect x="0" y="123.5" width="976" height="24.65"/>
            </clipPath>
<clipPath id="terminal-3578293381-line-6">
    <rect x="0" y="147.9" width="976" height="24.65"/>
            </clipPath>
<clipPath id="terminal-3578293381-line-7">
    <rect x="0" y="172.3" width="976" height="24.65"/>
            </clipPath>
<clipPath id="terminal-3578293381-line-8">
    <rect x="0" y="196.7" width="976" height="24.65"/>
            </clipPath>
<clipPath id="terminal-3578293381-line-9">
    <rect x="0" y="221.1" width="976" height="24.65"/>
            </clipPath>
<clipPath id="terminal-3578293381-line-10">
    <rect x="0" y="245.5" width="976" height="24.65"/>
            </clipPath>
<clipPath id="terminal-3578293381-line-11">
    <rect x="0" y="269.9" width="976" height="24.65"/>
            </clipPath>
<clipPath id="terminal-3578293381-line-12">
    <rect x="0" y="294.3" width="976" height="24.65"/>
            </clipPath>
<clipPath id="terminal-3578293381-line-13">
    <rect x="0" y="318.7" width="976" height="24.65"/>
            </clipPath>
<clipPath id="terminal-3578293381-line-14">
    <rect x="0" y="343.1" width="976" height="24.65"/>
            </clipPath>
<clipPath id="terminal-3578293381-line-15">
    <rect x="0" y="367.5" width="976" height="24.65"/>
            </clipPath>
<clipPath id="terminal-3578293381-line-16">
    <rect x="0" y="391.9" width="976" height="24.65"/>
            </clipPath>
<clipPath id="terminal-3578293381-line-17">
    <rect x="0" y="416.3" width="976" height="24.65"/>
            </clipPath>
<clipPath id="terminal-3578293381-line-18">
    <rect x="0" y="440.7" width="976" height="24.65"/>
            </clipPath>
<clipPath id="terminal-3578293381-line-19">
    <rect x="0" y="465.1" width="976" height="24.65"/>
            </clipPath>
<clipPath id="terminal-3578293381-line-20">
    <rect x="0" y="489.5" width="976" height="24.65"/>
            </clipPath>
<clipPath id="terminal-3578293381-line-21">
    <rect x="0" y="513.9" width="976" height="24.65"/>
            </clipPath>
<clipPath id="terminal-3578293381-line-22">
    <rect x="0" y="538.3" width="976" height="24.65"/>
            </clipPath>
    </defs>

    <rect fill="#292929" stroke="rgba(255,255,255,0.35)" stroke-width="1" x="1" y="1" width="992" height="633.6" rx="8"/><text class="terminal-3578293381-title" fill="#c5c8c6" text-anchor="middle" x="496" y="27">Slate&#160;Ops</text>
            <g transform="translate(26,22)">
            <circle cx="0" cy="0" r="7" fill="#ff5f57"/>
            <circle cx="22" cy="0" r="7" fill="#febc2e"/>
            <circle cx="44" cy="0" r="7" fill="#28c840"/>
            </g>
        
    <g transform="translate(9, 41)" clip-path="url(#terminal-3578293381-clip-terminal)">
    <rect fill="#17283b" x="0" y="1.5" width="24.4" height="24.65" shape-rendering="crispEdges"/><rect fill="#17283b" x="24.4" y="1.5" width="109.8" height="24.65" shape-rendering="crispEdges"/><rect fill="#17283b" x="134.2" y="1.5" width="36.6" height="24.65" shape-rendering="crispEdges"/><rect fill="#17283b" x="170.8" y="1.5" width="219.6" height="24.65" shape-rendering="crispEdges"/><rect fill="#17283b" x="390.4" y="1.5" width="36.6" height="24.65" shape-rendering="crispEdges"/><rect fill="#17283b" x="427" y="1.5" width="219.6" height="24.65" shape-rendering="crispEdges"/><rect fill="#17283b" x="646.6" y="1.5" width="36.6" height="24.65" shape-rendering="crispEdges"/><rect fill="#17283b" x="683.2" y="1.5" width="219.6" height="24.65" shape-rendering="crispEdges"/><rect fill="#17283b" x="902.8" y="1.5" width="48.8" height="24.65" shape-rendering="crispEdges"/><rect fill="#17283b" x="951.6" y="1.5" width="24.4" height="24.65" shape-rendering="crispEdges"/><rect fill="#17283b" x="0" y="25.9" width="24.4" height="24.65" shape-rendering="crispEdges"/><rect fill="#17283b" x="24.4" y="25.9" width="878.4" height="24.65" shape-rendering="crispEdges"/><rect fill="#17283b" x="902.8" y="25.9" width="48.8" height="24.65" shape-rendering="crispEdges"/><rect fill="#17283b" x="951.6" y="25.9" width="24.4" height="24.65" shape-rendering="crispEdges"/><rect fill="#0f172a" x="0" y="50.3" width="976" height="24.65" shape-rendering="crispEdges"/><rect fill="#0f172a" x="0" y="74.7" width="24.4" height="24.65" shape-rendering="crispEdges"/><rect fill="#1e293b" x="24.4" y="74.7" width="12.2" height="24.65" shape-rendering="crispEdges"/><rect fill="#1e293b" x="36.6" y="74.7" width="12.2" height="24.65" shape-rendering="crispEdges"/><rect fill="#1e293b" x="48.8" y="74.7" width="122" height="24.65" shape-rendering="crispEdges"/><rect fill="#1e293b" x="170.8" y="74.7" width="768.6" height="24.65" shape-rendering="crispEdges"/><rect fill="#1e293b" x="939.4" y="74.7" width="12.2" height="24.65" shape-rendering="crispEdges"/><rect fill="#0f172a" x="951.6" y="74.7" width="24.4" height="24.65" shape-rendering="crispEdges"/><rect fill="#0f172a" x="0" y="99.1" width="24.4" height="24.65" shape-rendering="crispEdges"/><rect fill="#1e293b" x="24.4" y="99.1" width="12.2" height="24.65" shape-rendering="crispEdges"/><rect fill="#1e293b" x="36.6" y="99.1" width="12.2" height="24.65" shape-rendering="crispEdges"/><rect fill="#1e293b" x="48.8" y="99.1" width="207.4" height="24.65" shape-rendering="crispEdges"/><rect fill="#1e293b" x="256.2" y="99.1" width="195.2" height="24.65" shape-rendering="crispEdges"/><rect fill="#1e293b" x="451.4" y="99.1" width="475.8" height="24.65" shape-rendering="crispEdges"/><rect fill="#1e293b" x="927.2" y="99.1" width="12.2" height="24.65" shape-rendering="crispEdges"/><rect fill="#1e293b" x="939.4" y="99.1" width="12.2" height="24.65" shape-rendering="crispEdges"/><rect fill="#0f172a" x="951.6" y="99.1" width="24.4" height="24.65" shape-rendering="crispEdges"/><rect fill="#0f172a" x="0" y="123.5" width="24.4" height="24.65" shape-rendering="crispEdges"/><rect fill="#1e293b" x="24.4" y="123.5" width="12.2" height="24.65" shape-rendering="crispEdges"/><rect fill="#1e293b" x="36.6" y="123.5" width="12.2" height="24.65" shape-rendering="crispEdges"/><rect fill="#1e293b" x="48.8" y="123.5" width="878.4" height="24.65" shape-rendering="crispEdges"/><rect fill="#1e293b" x="927.2" y="123.5" width="12.2" height="24.65" shape-rendering="crispEdges"/><rect fill="#1e293b" x="939.4" y="123.5" width="12.2" height="24.65" shape-rendering="crispEdges"/><rect fill="#0f172a" x="951.6" y="123.5" width="24.4" height="24.65" shape-rendering="crispEdges"/><rect fill="#0f172a" x="0" y="147.9" width="24.4" height="24.65" shape-rendering="crispEdges"/><rect fill="#1e293b" x="24.4" y="147.9" width="12.2" height="24.65" shape-rendering="crispEdges"/><rect fill="#1e293b" x="36.6" y="147.9" width="12.2" height="24.65" shape-rendering="crispEdges"/><rect fill="#27364c" x="48.8" y="147.9" width="12.2" height="24.65" shape-rendering="crispEdges"/><rect fill="#27364c" x="61" y="147.9" width="12.2" height="24.65" shape-rendering="crispEdges"/><rect fill="#27364c" x="73.2" y="147.9" width="170.8" height="24.65" shape-rendering="crispEdges"/><rect fill="#27364c" x="244" y="147.9" width="671" height="24.65" shape-rendering="crispEdges"/><rect fill="#27364c" x="915" y="147.9" width="12.2" height="24.65" shape-rendering="crispEdges"/><rect fill="#1e293b" x="927.2" y="147.9" width="12.2" height="24.65" shape-rendering="crispEdges"/><rect fill="#1e293b" x="939.4" y="147.9" width="12.2" height="24.65" shape-rendering="crispEdges"/><rect fill="#0f172a" x="951.6" y="147.9" width="24.4" height="24.65" shape-rendering="crispEdges"/><rect fill="#0f172a" x="0" y="172.3" width="24.4" height="24.65" shape-rendering="crispEdges"/><rect fill="#1e293b" x="24.4" y="172.3" width="12.2" height="24.65" shape-rendering="crispEdges"/><rect fill="#1e293b" x="36.6" y="172.3" width="12.2" height="24.65" shape-rendering="crispEdges"/><rect fill="#27364c" x="48.8" y="172.3" width="12.2" height="24.65" shape-rendering="crispEdges"/><rect fill="#27364c" x="61" y="172.3" width="12.2" height="24.65" shape-rendering="crispEdges"/><rect fill="#27364c" x="73.2" y="172.3" width="219.6" height="24.65" shape-rendering="crispEdges"/><rect fill="#27364c" x="292.8" y="172.3" width="524.6" height="24.65" shape-rendering="crispEdges"/><rect fill="#27364c" x="817.4" y="172.3" width="73.2" height="24.65" shape-rendering="crispEdges"/><rect fill="#3b4a61" x="890.6" y="172.3" width="12.2" height="24.65" shape-rendering="crispEdges"/><rect fill="#27364c" x="902.8" y="172.3" width="12.2" height="24.65" shape-rendering="crispEdges"/><rect fill="#27364c" x="915" y="172.3" width="12.2" height="24.65" shape-rendering="crispEdges"/><rect fill="#1e293b" x="927.2" y="172.3" width="12.2" height="24.65" shape-rendering="crispEdges"/><rect fill="#1e293b" x="939.4" y="172.3" width="12.2" height="24.65" shape-rendering="crispEdges"/><rect fill="#0f172a" x="951.6" y="172.3" width="24.4" height="24.65" shape-rendering="crispEdges"/><rect fill="#0f172a" x="0" y="196.7" width="24.4" height="24.65" shape-rendering="crispEdges"/><rect fill="#1e293b" x="24.4" y="196.7" width="12.2" height="24.65" shape-rendering="crispEdges"/><rect fill="#1e293b" x="36.6" y="196.7" width="12.2" height="24.65" shape-rendering="crispEdges"/><rect fill="#27364c" x="48.8" y="196.7" width="12.2" height="24.65" shape-rendering="crispEdges"/><rect fill="#27364c" x="61" y="196.7" width="12.2" height="24.65" shape-rendering="crispEdges"/><rect fill="#27364c" x="73.2" y="196.7" width="195.2" height="24.65" shape-rendering="crispEdges"/><rect fill="#27364c" x="268.4" y="196.7" width="622.2" height="24.65" shape-rendering="crispEdges"/><rect fill="#3b4a61" x="890.6" y="196.7" width="12.2" height="24.65" shape-rendering="crispEdges"/><rect fill="#27364c" x="902.8" y="196.7" width="12.2" height="24.65" shape-rendering="crispEdges"/><rect fill="#27364c" x="915" y="196.7" width="12.2" height="24.65" shape-rendering="crispEdges"/><rect fill="#1e293b" x="927.2" y="196.7" width="12.2" height="24.65" shape-rendering="crispEdges"/><rect fill="#1e293b" x="939.4" y="196.7" width="12.2" height="24.65" shape-rendering="crispEdges"/><rect fill="#0f172a" x="951.6" y="196.7" width="24.4" height="24.65" shape-rendering="crispEdges"/><rect fill="#0f172a" x="0" y="221.1" width="24.4" height="24.65" shape-rendering="crispEdges"/><rect fill="#1e293b" x="24.4" y="221.1" width="12.2" height="24.65" shape-rendering="crispEdges"/><rect fill="#1e293b" x="36.6" y="221.1" width="12.2" height="24.65" shape-rendering="crispEdges"/><rect fill="#27364c" x="48.8" y="221.1" width="12.2" height="24.65" shape-rendering="crispEdges"/><rect fill="#27364c" x="61" y="221.1" width="12.2" height="24.65" shape-rendering="crispEdges"/><rect fill="#27364c" x="73.2" y="221.1" width="610" height="24.65" shape-rendering="crispEdges"/><rect fill="#27364c" x="683.2" y="221.1" width="207.4" height="24.65" shape-rendering="crispEdges"/><rect fill="#3b4a61" x="890.6" y="221.1" width="12.2" height="24.65" shape-rendering="crispEdges"/><rect fill="#27364c" x="902.8" y="221.1" width="12.2" height="24.65" shape-rendering="crispEdges"/><rect fill="#27364c" x="915" y="221.1" width="12.2" height="24.65" shape-rendering="crispEdges"/><rect fill="#1e293b" x="927.2" y="221.1" width="12.2" height="24.65" shape-rendering="crispEdges"/><rect fill="#1e293b" x="939.4" y="221.1" width="12.2" height="24.65" shape-rendering="crispEdges"/><rect fill="#0f172a" x="951.6" y="221.1" width="24.4" height="24.65" shape-rendering="crispEdges"/><rect fill="#0f172a" x="0" y="245.5" width="24.4" height="24.65" shape-rendering="crispEdges"/><rect fill="#1e293b" x="24.4" y="245.5" width="12.2" height="24.65" shape-rendering="crispEdges"/><rect fill="#1e293b" x="36.6" y="245.5" width="12.2" height="24.65" shape-rendering="crispEdges"/><rect fill="#27364c" x="48.8" y="245.5" width="12.2" height="24.65" shape-rendering="crispEdges"/><rect fill="#27364c" x="61" y="245.5" width="12.2" height="24.65" shape-rendering="crispEdges"/><rect fill="#27364c" x="73.2" y="245.5" width="341.6" height="24.65" shape-rendering="crispEdges"/><rect fill="#27364c" x="414.8" y="245.5" width="475.8" height="24.65" shape-rendering="crispEdges"/><rect fill="#27364c" x="890.6" y="245.5" width="12.2" height="24.65" shape-rendering="crispEdges"/><rect fill="#27364c" x="902.8" y="245.5" width="12.2" height="24.65" shape-rendering="crispEdges"/><rect fill="#27364c" x="915" y="245.5" width="12.2" height="24.65" shape-rendering="crispEdges"/><rect fill="#1e293b" x="927.2" y="245.5" width="12.2" height="24.65" shape-rendering="crispEdges"/><rect fill="#1e293b" x="939.4" y="245.5" width="12.2" height="24.65" shape-rendering="crispEdges"/><rect fill="#0f172a" x="951.6" y="245.5" width="24.4" height="24.65" shape-rendering="crispEdges"/><rect fill="#0f172a" x="0" y="269.9" width="24.4" height="24.65" shape-rendering="crispEdges"/><rect fill="#1e293b" x="24.4" y="269.9" width="12.2" height="24.65" shape-rendering="crispEdges"/><rect fill="#1e293b" x="36.6" y="269.9" width="12.2" height="24.65" shape-rendering="crispEdges"/><rect fill="#27364c" x="48.8" y="269.9" width="12.2" height="24.65" shape-rendering="crispEdges"/><rect fill="#27364c" x="61" y="269.9" width="12.2" height="24.65" shape-rendering="crispEdges"/><rect fill="#27364c" x="73.2" y="269.9" width="744.2" height="24.65" shape-rendering="crispEdges"/><rect fill="#27364c" x="817.4" y="269.9" width="73.2" height="24.65" shape-rendering="crispEdges"/><rect fill="#27364c" x="890.6" y="269.9" width="12.2" height="24.65" shape-rendering="crispEdges"/><rect fill="#27364c" x="902.8" y="269.9" width="12.2" height="24.65" shape-rendering="crispEdges"/><rect fill="#27364c" x="915" y="269.9" width="12.2" height="24.65" shape-rendering="crispEdges"/><rect fill="#1e293b" x="927.2" y="269.9" width="12.2" height="24.65" shape-rendering="crispEdges"/><rect fill="#1e293b" x="939.4" y="269.9" width="12.2" height="24.65" shape-rendering="crispEdges"/><rect fill="#0f172a" x="951.6" y="269.9" width="24.4" height="24.65" shape-rendering="crispEdges"/><rect fill="#0f172a" x="0" y="294.3" width="24.4" height="24.65" shape-rendering="crispEdges"/><rect fill="#1e293b" x="24.4" y="294.3" width="12.2" height="24.65" shape-rendering="crispEdges"/><rect fill="#1e293b" x="36.6" y="294.3" width="12.2" height="24.65" shape-rendering="crispEdges"/><rect fill="#27364c" x="48.8" y="294.3" width="12.2" height="24.65" shape-rendering="crispEdges"/><rect fill="#27364c" x="61" y="294.3" width="12.2" height="24.65" shape-rendering="crispEdges"/><rect fill="#27364c" x="73.2" y="294.3" width="829.6" height="24.65" shape-rendering="crispEdges"/><rect fill="#27364c" x="902.8" y="294.3" width="12.2" height="24.65" shape-rendering="crispEdges"/><rect fill="#27364c" x="915" y="294.3" width="12.2" height="24.65" shape-rendering="crispEdges"/><rect fill="#1e293b" x="927.2" y="294.3" width="12.2" height="24.65" shape-rendering="crispEdges"/><rect fill="#1e293b" x="939.4" y="294.3" width="12.2" height="24.65" shape-rendering="crispEdges"/><rect fill="#0f172a" x="951.6" y="294.3" width="24.4" height="24.65" shape-rendering="crispEdges"/><rect fill="#0f172a" x="0" y="318.7" width="24.4" height="24.65" shape-rendering="crispEdges"/><rect fill="#1e293b" x="24.4" y="318.7" width="12.2" height="24.65" shape-rendering="crispEdges"/><rect fill="#1e293b" x="36.6" y="318.7" width="12.2" height="24.65" shape-rendering="crispEdges"/><rect fill="#27364c" x="48.8" y="318.7" width="12.2" height="24.65" shape-rendering="crispEdges"/><rect fill="#27364c" x="61" y="318.7" width="12.2" height="24.65" shape-rendering="crispEdges"/><rect fill="#27364c" x="73.2" y="318.7" width="463.6" height="24.65" shape-rendering="crispEdges"/><rect fill="#27364c" x="536.8" y="318.7" width="366" height="24.65" shape-rendering="crispEdges"/><rect fill="#27364c" x="902.8" y="318.7" width="12.2" height="24.65" shape-rendering="crispEdges"/><rect fill="#27364c" x="915" y="318.7" width="12.2" height="24.65" shape-rendering="crispEdges"/><rect fill="#1e293b" x="927.2" y="318.7" width="12.2" height="24.65" shape-rendering="crispEdges"/><rect fill="#1e293b" x="939.4" y="318.7" width="12.2" height="24.65" shape-rendering="crispEdges"/><rect fill="#0f172a" x="951.6" y="318.7" width="24.4" height="24.65" shape-rendering="crispEdges"/><rect fill="#0f172a" x="0" y="343.1" width="24.4" height="24.65" shape-rendering="crispEdges"/><rect fill="#1e293b" x="24.4" y="343.1" width="12.2" height="24.65" shape-rendering="crispEdges"/><rect fill="#1e293b" x="36.6" y="343.1" width="12.2" height="24.65" shape-rendering="crispEdges"/><rect fill="#27364c" x="48.8" y="343.1" width="12.2" height="24.65" shape-rendering="crispEdges"/><rect fill="#27364c" x="61" y="343.1" width="12.2" height="24.65" shape-rendering="crispEdges"/><rect fill="#27364c" x="73.2" y="343.1" width="817.4" height="24.65" shape-rendering="crispEdges"/><rect fill="#27364c" x="890.6" y="343.1" width="12.2" height="24.65" shape-rendering="crispEdges"/><rect fill="#27364c" x="902.8" y="343.1" width="12.2" height="24.65" shape-rendering="crispEdges"/><rect fill="#27364c" x="915" y="343.1" width="12.2" height="24.65" shape-rendering="crispEdges"/><rect fill="#1e293b" x="927.2" y="343.1" width="12.2" height="24.65" shape-rendering="crispEdges"/><rect fill="#1e293b" x="939.4" y="343.1" width="12.2" height="24.65" shape-rendering="crispEdges"/><rect fill="#0f172a" x="951.6" y="343.1" width="24.4" height="24.65" shape-rendering="crispEdges"/><rect fill="#0f172a" x="0" y="367.5" width="24.4" height="24.65" shape-rendering="crispEdges"/><rect fill="#1e293b" x="24.4" y="367.5" width="12.2" height="24.65" shape-rendering="crispEdges"/><rect fill="#1e293b" x="36.6" y="367.5" width="12.2" height="24.65" shape-rendering="crispEdges"/><rect fill="#27364c" x="48.8" y="367.5" width="12.2" height="24.65" shape-rendering="crispEdges"/><rect fill="#27364c" x="61" y="367.5" width="12.2" height="24.65" shape-rendering="crispEdges"/><rect fill="#27364c" x="73.2" y="367.5" width="256.2" height="24.65" shape-rendering="crispEdges"/><rect fill="#27364c" x="329.4" y="367.5" width="573.4" height="24.65" shape-rendering="crispEdges"/><rect fill="#27364c" x="902.8" y="367.5" width="12.2" height="24.65" shape-rendering="crispEdges"/><rect fill="#27364c" x="915" y="367.5" width="12.2" height="24.65" shape-rendering="crispEdges"/><rect fill="#1e293b" x="927.2" y="367.5" width="12.2" height="24.65" shape-rendering="crispEdges"/><rect fill="#1e293b" x="939.4" y="367.5" width="12.2" height="24.65" shape-rendering="crispEdges"/><rect fill="#0f172a" x="951.6" y="367.5" width="24.4" height="24.65" shape-rendering="crispEdges"/><rect fill="#0f172a" x="0" y="391.9" width="24.4" height="24.65" shape-rendering="crispEdges"/><rect fill="#1e293b" x="24.4" y="391.9" width="12.2" height="24.65" shape-rendering="crispEdges"/><rect fill="#1e293b" x="36.6" y="391.9" width="12.2" height="24.65" shape-rendering="crispEdges"/><rect fill="#27364c" x="48.8" y="391.9" width="12.2" height="24.65" shape-rendering="crispEdges"/><rect fill="#27364c" x="61" y="391.9" width="12.2" height="24.65" shape-rendering="crispEdges"/><rect fill="#27364c" x="73.2" y="391.9" width="829.6" height="24.65" shape-rendering="crispEdges"/><rect fill="#27364c" x="902.8" y="391.9" width="12.2" height="24.65" shape-rendering="crispEdges"/><rect fill="#27364c" x="915" y="391.9" width="12.2" height="24.65" shape-rendering="crispEdges"/><rect fill="#1e293b" x="927.2" y="391.9" width="12.2" height="24.65" shape-rendering="crispEdges"/><rect fill="#1e293b" x="939.4" y="391.9" width="12.2" height="24.65" shape-rendering="crispEdges"/><rect fill="#0f172a" x="951.6" y="391.9" width="24.4" height="24.65" shape-rendering="crispEdges"/><rect fill="#0f172a" x="0" y="416.3" width="24.4" height="24.65" shape-rendering="crispEdges"/><rect fill="#1e293b" x="24.4" y="416.3" width="12.2" height="24.65" shape-rendering="crispEdges"/><rect fill="#1e293b" x="36.6" y="416.3" width="12.2" height="24.65" shape-rendering="crispEdges"/><rect fill="#27364c" x="48.8" y="416.3" width="12.2" height="24.65" shape-rendering="crispEdges"/><rect fill="#27364c" x="61" y="416.3" width="12.2" height="24.65" shape-rendering="crispEdges"/><rect fill="#f8fafc" x="73.2" y="416.3" width="12.2" height="24.65" shape-rendering="crispEdges"/><rect fill="#f8fafc" x="85.4" y="416.3" width="97.6" height="24.65" shape-rendering="crispEdges"/><rect fill="#f8fafc" x="183" y="416.3" width="183" height="24.65" shape-rendering="crispEdges"/><rect fill="#f8fafc" x="366" y="416.3" width="97.6" height="24.65" shape-rendering="crispEdges"/><rect fill="#f8fafc" x="463.6" y="416.3" width="12.2" height="24.65" shape-rendering="crispEdges"/><rect fill="#27364c" x="475.8" y="416.3" width="12.2" height="24.65" shape-rendering="crispEdges"/><rect fill="#3b4a61" x="488" y="416.3" width="12.2" height="24.65" shape-rendering="crispEdges"/><rect fill="#3b4a61" x="500.2" y="416.3" width="109.8" height="24.65" shape-rendering="crispEdges"/><rect fill="#3b4a61" x="610" y="416.3" width="158.6" height="24.65" shape-rendering="crispEdges"/><rect fill="#3b4a61" x="768.6" y="416.3" width="122" height="24.65" shape-rendering="crispEdges"/><rect fill="#3b4a61" x="890.6" y="416.3" width="12.2" height="24.65" shape-rendering="crispEdges"/><rect fill="#27364c" x="902.8" y="416.3" width="12.2" height="24.65" shape-rendering="crispEdges"/><rect fill="#27364c" x="915" y="416.3" width="12.2" height="24.65" shape-rendering="crispEdges"/><rect fill="#1e293b" x="927.2" y="416.3" width="12.2" height="24.65" shape-rendering="crispEdges"/><rect fill="#1e293b" x="939.4" y="416.3" width="12.2" height="24.65" shape-rendering="crispEdges"/><rect fill="#0f172a" x="951.6" y="416.3" width="24.4" height="24.65" shape-rendering="crispEdges"/><rect fill="#0f172a" x="0" y="440.7" width="24.4" height="24.65" shape-rendering="crispEdges"/><rect fill="#1e293b" x="24.4" y="440.7" width="12.2" height="24.65" shape-rendering="crispEdges"/><rect fill="#1e293b" x="36.6" y="440.7" width="12.2" height="24.65" shape-rendering="crispEdges"/><rect fill="#27364c" x="48.8" y="440.7" width="12.2" height="24.65" shape-rendering="crispEdges"/><rect fill="#27364c" x="61" y="440.7" width="12.2" height="24.65" shape-rendering="crispEdges"/><rect fill="#3b4a61" x="73.2" y="440.7" width="12.2" height="24.65" shape-rendering="crispEdges"/><rect fill="#3b4a61" x="85.4" y="440.7" width="109.8" height="24.65" shape-rendering="crispEdges"/><rect fill="#3b4a61" x="195.2" y="440.7" width="158.6" height="24.65" shape-rendering="crispEdges"/><rect fill="#3b4a61" x="353.8" y="440.7" width="109.8" height="24.65" shape-rendering="crispEdges"/><rect fill="#3b4a61" x="463.6" y="440.7" width="12.2" height="24.65" shape-rendering="crispEdges"/><rect fill="#27364c" x="475.8" y="440.7" width="12.2" height="24.65" shape-rendering="crispEdges"/><rect fill="#3b4a61" x="488" y="440.7" width="12.2" height="24.65" shape-rendering="crispEdges"/><rect fill="#3b4a61" x="500.2" y="440.7" width="73.2" height="24.65" shape-rendering="crispEdges"/><rect fill="#3b4a61" x="573.4" y="440.7" width="231.8" height="24.65" shape-rendering="crispEdges"/><rect fill="#3b4a61" x="805.2" y="440.7" width="85.4" height="24.65" shape-rendering="crispEdges"/><rect fill="#3b4a61" x="890.6" y="440.7" width="12.2" height="24.65" shape-rendering="crispEdges"/><rect fill="#27364c" x="902.8" y="440.7" width="12.2" height="24.65" shape-rendering="crispEdges"/><rect fill="#27364c" x="915" y="440.7" width="12.2" height="24.65" shape-rendering="crispEdges"/><rect fill="#1e293b" x="927.2" y="440.7" width="12.2" height="24.65" shape-rendering="crispEdges"/><rect fill="#1e293b" x="939.4" y="440.7" width="12.2" height="24.65" shape-rendering="crispEdges"/><rect fill="#0f172a" x="951.6" y="440.7" width="24.4" height="24.65" shape-rendering="crispEdges"/><rect fill="#0f172a" x="0" y="465.1" width="24.4" height="24.65" shape-rendering="crispEdges"/><rect fill="#1e293b" x="24.4" y="465.1" width="12.2" height="24.65" shape-rendering="crispEdges"/><rect fill="#1e293b" x="36.6" y="465.1" width="12.2" height="24.65" shape-rendering="crispEdges"/><rect fill="#27364c" x="48.8" y="465.1" width="12.2" height="24.65" shape-rendering="crispEdges"/><rect fill="#27364c" x="61" y="465.1" width="12.2" height="24.65" shape-rendering="crispEdges"/><rect fill="#3b4a61" x="73.2" y="465.1" width="12.2" height="24.65" shape-rendering="crispEdges"/><rect fill="#3b4a61" x="85.4" y="465.1" width="85.4" height="24.65" shape-rendering="crispEdges"/><rect fill="#3b4a61" x="170.8" y="465.1" width="195.2" height="24.65" shape-rendering="crispEdges"/><rect fill="#3b4a61" x="366" y="465.1" width="97.6" height="24.65" shape-rendering="crispEdges"/><rect fill="#3b4a61" x="463.6" y="465.1" width="12.2" height="24.65" shape-rendering="crispEdges"/><rect fill="#27364c" x="475.8" y="465.1" width="427" height="24.65" shape-rendering="crispEdges"/><rect fill="#27364c" x="902.8" y="465.1" width="12.2" height="24.65" shape-rendering="crispEdges"/><rect fill="#27364c" x="915" y="465.1" width="12.2" height="24.65" shape-rendering="crispEdges"/><rect fill="#1e293b" x="927.2" y="465.1" width="12.2" height="24.65" shape-rendering="crispEdges"/><rect fill="#1e293b" x="939.4" y="465.1" width="12.2" height="24.65" shape-rendering="crispEdges"/><rect fill="#0f172a" x="951.6" y="465.1" width="24.4" height="24.65" shape-rendering="crispEdges"/><rect fill="#0f172a" x="0" y="489.5" width="24.4" height="24.65" shape-rendering="crispEdges"/><rect fill="#1e293b" x="24.4" y="489.5" width="12.2" height="24.65" shape-rendering="crispEdges"/><rect fill="#1e293b" x="36.6" y="489.5" width="12.2" height="24.65" shape-rendering="crispEdges"/><rect fill="#27364c" x="48.8" y="489.5" width="12.2" height="24.65" shape-rendering="crispEdges"/><rect fill="#27364c" x="61" y="489.5" width="854" height="24.65" shape-rendering="crispEdges"/><rect fill="#27364c" x="915" y="489.5" width="12.2" height="24.65" shape-rendering="crispEdges"/><rect fill="#1e293b" x="927.2" y="489.5" width="12.2" height="24.65" shape-rendering="crispEdges"/><rect fill="#1e293b" x="939.4" y="489.5" width="12.2" height="24.65" shape-rendering="crispEdges"/><rect fill="#0f172a" x="951.6" y="489.5" width="24.4" height="24.65" shape-rendering="crispEdges"/><rect fill="#0f172a" x="0" y="513.9" width="24.4" height="24.65" shape-rendering="crispEdges"/><rect fill="#1e293b" x="24.4" y="513.9" width="12.2" height="24.65" shape-rendering="crispEdges"/><rect fill="#1e293b" x="36.6" y="513.9" width="902.8" height="24.65" shape-rendering="crispEdges"/><rect fill="#1e293b" x="939.4" y="513.9" width="12.2" height="24.65" shape-rendering="crispEdges"/><rect fill="#0f172a" x="951.6" y="513.9" width="24.4" height="24.65" shape-rendering="crispEdges"/><rect fill="#0f172a" x="0" y="538.3" width="24.4" height="24.65" shape-rendering="crispEdges"/><rect fill="#0f172a" x="24.4" y="538.3" width="927.2" height="24.65" shape-rendering="crispEdges"/><rect fill="#0f172a" x="951.6" y="538.3" width="24.4" height="24.65" shape-rendering="crispEdges"/><rect fill="#17283b" x="0" y="562.7" width="24.4" height="24.65" shape-rendering="crispEdges"/><rect fill="#94a3b8" x="24.4" y="562.7" width="61" height="24.65" shape-rendering="crispEdges"/><rect fill="#17283b" x="85.4" y="562.7" width="61" height="24.65" shape-rendering="crispEdges"/><rect fill="#17283b" x="146.4" y="562.7" width="12.2" height="24.65" shape-rendering="crispEdges"/><rect fill="#94a3b8" x="158.6" y="562.7" width="85.4" height="24.65" shape-rendering="crispEdges"/><rect fill="#17283b" x="244" y="562.7" width="85.4" height="24.65" shape-rendering="crispEdges"/><rect fill="#17283b" x="329.4" y="562.7" width="12.2" height="24.65" shape-rendering="crispEdges"/><rect fill="#94a3b8" x="341.6" y="562.7" width="36.6" height="24.65" shape-rendering="crispEdges"/><rect fill="#17283b" x="378.2" y="562.7" width="146.4" height="24.65" shape-rendering="crispEdges"/><rect fill="#17283b" x="524.6" y="562.7" width="12.2" height="24.65" shape-rendering="crispEdges"/><rect fill="#94a3b8" x="536.8" y="562.7" width="36.6" height="24.65" shape-rendering="crispEdges"/><rect fill="#17283b" x="573.4" y="562.7" width="61" height="24.65" shape-rendering="crispEdges"/><rect fill="#17283b" x="634.4" y="562.7" width="317.2" height="24.65" shape-rendering="crispEdges"/><rect fill="#17283b" x="951.6" y="562.7" width="24.4" height="24.65" shape-rendering="crispEdges"/>
    <g class="terminal-3578293381-matrix">
    <text class="terminal-3578293381-r2" x="24.4" y="20" textLength="109.8" clip-path="url(#terminal-3578293381-line-0)">SLATE&#160;OPS</text><text class="terminal-3578293381-r3" x="134.2" y="20" textLength="36.6" clip-path="url(#terminal-3578293381-line-0)">&#160;│&#160;</text><text class="terminal-3578293381-r4" x="170.8" y="20" textLength="219.6" clip-path="url(#terminal-3578293381-line-0)">Node&#160;Manager&#160;setup</text><text class="terminal-3578293381-r3" x="390.4" y="20" textLength="36.6" clip-path="url(#terminal-3578293381-line-0)">&#160;│&#160;</text><text class="terminal-3578293381-r5" x="427" y="20" textLength="219.6" clip-path="url(#terminal-3578293381-line-0)">Running:…&#160;/&#160;update</text><text class="terminal-3578293381-r5" x="683.2" y="20" textLength="219.6" clip-path="url(#terminal-3578293381-line-0)">student@fixture-vm</text><text class="terminal-3578293381-r1" x="976" y="20" textLength="12.2" clip-path="url(#terminal-3578293381-line-0)">
</text><text class="terminal-3578293381-r7" x="24.4" y="44.4" textLength="878.4" clip-path="url(#terminal-3578293381-line-1)">source&#160;1.30.58&#160;&#160;·&#160;&#160;manager&#160;1.30.57&#160;running&#160;&#160;·&#160;&#160;checkout&#160;/home/s…-manager</text><text class="terminal-3578293381-r1" x="976" y="44.4" textLength="12.2" clip-path="url(#terminal-3578293381-line-1)">
</text><text class="terminal-3578293381-r1" x="976" y="68.8" textLength="12.2" clip-path="url(#terminal-3578293381-line-2)">
</text><text class="terminal-3578293381-r8" x="24.4" y="93.2" textLength="12.2" clip-path="url(#terminal-3578293381-line-3)">╭</text><text class="terminal-3578293381-r8" x="36.6" y="93.2" textLength="12.2" clip-path="url(#terminal-3578293381-line-3)">─</text><text class="terminal-3578293381-r2" x="48.8" y="93.2" textLength="122" clip-path="url(#terminal-3578293381-line-3)">&#160;Activity&#160;</text><text class="terminal-3578293381-r8" x="170.8" y="93.2" textLength="768.6" clip-path="url(#terminal-3578293381-line-3)">───────────────────────────────────────────────────────────────</text><text class="terminal-3578293381-r8" x="939.4" y="93.2" textLength="12.2" clip-path="url(#terminal-3578293381-line-3)">╮</text><text class="terminal-3578293381-r1" x="976" y="93.2" textLength="12.2" clip-path="url(#terminal-3578293381-line-3)">
</text><text class="terminal-3578293381-r8" x="24.4" y="117.6" textLength="12.2" clip-path="url(#terminal-3578293381-line-4)">│</text><text class="terminal-3578293381-r9" x="48.8" y="117.6" textLength="207.4" clip-path="url(#terminal-3578293381-line-4)">Needs&#160;attention&#160;&#160;</text><text class="terminal-3578293381-r4" x="256.2" y="117.6" textLength="195.2" clip-path="url(#terminal-3578293381-line-4)">VM&#160;prerequisites</text><text class="terminal-3578293381-r8" x="939.4" y="117.6" textLength="12.2" clip-path="url(#terminal-3578293381-line-4)">│</text><text class="terminal-3578293381-r1" x="976" y="117.6" textLength="12.2" clip-path="url(#terminal-3578293381-line-4)">
</text><text class="terminal-3578293381-r8" x="24.4" y="142" textLength="12.2" clip-path="url(#terminal-3578293381-line-5)">│</text><text class="terminal-3578293381-r8" x="939.4" y="142" textLength="12.2" clip-path="url(#terminal-3578293381-line-5)">│</text><text class="terminal-3578293381-r1" x="976" y="142" textLength="12.2" clip-path="url(#terminal-3578293381-line-5)">
</text><text class="terminal-3578293381-r8" x="24.4" y="166.4" textLength="12.2" clip-path="url(#terminal-3578293381-line-6)">│</text><text class="terminal-3578293381-r10" x="48.8" y="166.4" textLength="12.2" clip-path="url(#terminal-3578293381-line-6)">╭</text><text class="terminal-3578293381-r10" x="61" y="166.4" textLength="12.2" clip-path="url(#terminal-3578293381-line-6)">─</text><text class="terminal-3578293381-r10" x="73.2" y="166.4" textLength="170.8" clip-path="url(#terminal-3578293381-line-6)">&#160;Package&#160;lock&#160;</text><text class="terminal-3578293381-r10" x="244" y="166.4" textLength="671" clip-path="url(#terminal-3578293381-line-6)">───────────────────────────────────────────────────────</text><text class="terminal-3578293381-r10" x="915" y="166.4" textLength="12.2" clip-path="url(#terminal-3578293381-line-6)">╮</text><text class="terminal-3578293381-r8" x="939.4" y="166.4" textLength="12.2" clip-path="url(#terminal-3578293381-line-6)">│</text><text class="terminal-3578293381-r1" x="976" y="166.4" textLength="12.2" clip-path="url(#terminal-3578293381-line-6)">
</text><text class="terminal-3578293381-r8" x="24.4" y="190.8" textLength="12.2" clip-path="url(#terminal-3578293381-line-7)">│</text><text class="terminal-3578293381-r10" x="48.8" y="190.8" textLength="12.2" clip-path="url(#terminal-3578293381-line-7)">│</text><text class="terminal-3578293381-r4" x="73.2" y="190.8" textLength="219.6" clip-path="url(#terminal-3578293381-line-7)">VM&#160;prerequisites:&#160;</text><text class="terminal-3578293381-r6" x="292.8" y="190.8" textLength="524.6" clip-path="url(#terminal-3578293381-line-7)">The&#160;package&#160;manager&#160;(APT/dpkg)&#160;is&#160;locked&#160;by</text><text class="terminal-3578293381-r10" x="915" y="190.8" textLength="12.2" clip-path="url(#terminal-3578293381-line-7)">│</text><text class="terminal-3578293381-r8" x="939.4" y="190.8" textLength="12.2" clip-path="url(#terminal-3578293381-line-7)">│</text><text class="terminal-3578293381-r1" x="976" y="190.8" textLength="12.2" clip-path="url(#terminal-3578293381-line-7)">
</text><text class="terminal-3578293381-r8" x="24.4" y="215.2" textLength="12.2" clip-path="url(#terminal-3578293381-line-8)">│</text><text class="terminal-3578293381-r10" x="48.8" y="215.2" textLength="12.2" clip-path="url(#terminal-3578293381-line-8)">│</text><text class="terminal-3578293381-r6" x="73.2" y="215.2" textLength="195.2" clip-path="url(#terminal-3578293381-line-8)">another&#160;process.</text><text class="terminal-3578293381-r10" x="915" y="215.2" textLength="12.2" clip-path="url(#terminal-3578293381-line-8)">│</text><text class="terminal-3578293381-r8" x="939.4" y="215.2" textLength="12.2" clip-path="url(#terminal-3578293381-line-8)">│</text><text class="terminal-3578293381-r1" x="976" y="215.2" textLength="12.2" clip-path="url(#terminal-3578293381-line-8)">
</text><text class="terminal-3578293381-r8" x="24.4" y="239.6" textLength="12.2" clip-path="url(#terminal-3578293381-line-9)">│</text><text class="terminal-3578293381-r10" x="48.8" y="239.6" textLength="12.2" clip-path="url(#terminal-3578293381-line-9)">│</text><text class="terminal-3578293381-r5" x="73.2" y="239.6" textLength="610" clip-path="url(#terminal-3578293381-line-9)">Package&#160;lock&#160;held&#160;by&#160;pid&#160;2230&#160;(unattended-upgr)&#160;on</text><text class="terminal-3578293381-r11" x="890.6" y="239.6" textLength="12.2" clip-path="url(#terminal-3578293381-line-9)">▇</text><text class="terminal-3578293381-r10" x="915" y="239.6" textLength="12.2" clip-path="url(#terminal-3578293381-line-9)">│</text><text class="terminal-3578293381-r8" x="939.4" y="239.6" textLength="12.2" clip-path="url(#terminal-3578293381-line-9)">│</text><text class="terminal-3578293381-r1" x="976" y="239.6" textLength="12.2" clip-path="url(#terminal-3578293381-line-9)">
</text><text class="terminal-3578293381-r8" x="24.4" y="264" textLength="12.2" clip-path="url(#terminal-3578293381-line-10)">│</text><text class="terminal-3578293381-r10" x="48.8" y="264" textLength="12.2" clip-path="url(#terminal-3578293381-line-10)">│</text><text class="terminal-3578293381-r5" x="73.2" y="264" textLength="341.6" clip-path="url(#terminal-3578293381-line-10)">/var/lib/dpkg/lock-frontend.</text><text class="terminal-3578293381-r10" x="915" y="264" textLength="12.2" clip-path="url(#terminal-3578293381-line-10)">│</text><text class="terminal-3578293381-r8" x="939.4" y="264" textLength="12.2" clip-path="url(#terminal-3578293381-line-10)">│</text><text class="terminal-3578293381-r1" x="976" y="264" textLength="12.2" clip-path="url(#terminal-3578293381-line-10)">
</text><text class="terminal-3578293381-r8" x="24.4" y="288.4" textLength="12.2" clip-path="url(#terminal-3578293381-line-11)">│</text><text class="terminal-3578293381-r10" x="48.8" y="288.4" textLength="12.2" clip-path="url(#terminal-3578293381-line-11)">│</text><text class="terminal-3578293381-r5" x="73.2" y="288.4" textLength="744.2" clip-path="url(#terminal-3578293381-line-11)">Never&#160;stop&#160;unattended-upgrades.service,&#160;kill&#160;this&#160;process,&#160;or</text><text class="terminal-3578293381-r10" x="915" y="288.4" textLength="12.2" clip-path="url(#terminal-3578293381-line-11)">│</text><text class="terminal-3578293381-r8" x="939.4" y="288.4" textLength="12.2" clip-path="url(#terminal-3578293381-line-11)">│</text><text class="terminal-3578293381-r1" x="976" y="288.4" textLength="12.2" clip-path="url(#terminal-3578293381-line-11)">
</text><text class="terminal-3578293381-r8" x="24.4" y="312.8" textLength="12.2" clip-path="url(#terminal-3578293381-line-12)">│</text><text class="terminal-3578293381-r10" x="48.8" y="312.8" textLength="12.2" clip-path="url(#terminal-3578293381-line-12)">│</text><text class="terminal-3578293381-r10" x="915" y="312.8" textLength="12.2" clip-path="url(#terminal-3578293381-line-12)">│</text><text class="terminal-3578293381-r8" x="939.4" y="312.8" textLength="12.2" clip-path="url(#terminal-3578293381-line-12)">│</text><text class="terminal-3578293381-r1" x="976" y="312.8" textLength="12.2" clip-path="url(#terminal-3578293381-line-12)">
</text><text class="terminal-3578293381-r8" x="24.4" y="337.2" textLength="12.2" clip-path="url(#terminal-3578293381-line-13)">│</text><text class="terminal-3578293381-r10" x="48.8" y="337.2" textLength="12.2" clip-path="url(#terminal-3578293381-line-13)">│</text><text class="terminal-3578293381-r7" x="73.2" y="337.2" textLength="463.6" clip-path="url(#terminal-3578293381-line-13)">Copyable&#160;command,&#160;in&#160;another&#160;terminal:</text><text class="terminal-3578293381-r10" x="915" y="337.2" textLength="12.2" clip-path="url(#terminal-3578293381-line-13)">│</text><text class="terminal-3578293381-r8" x="939.4" y="337.2" textLength="12.2" clip-path="url(#terminal-3578293381-line-13)">│</text><text class="terminal-3578293381-r1" x="976" y="337.2" textLength="12.2" clip-path="url(#terminal-3578293381-line-13)">
</text><text class="terminal-3578293381-r8" x="24.4" y="361.6" textLength="12.2" clip-path="url(#terminal-3578293381-line-14)">│</text><text class="terminal-3578293381-r10" x="48.8" y="361.6" textLength="12.2" clip-path="url(#terminal-3578293381-line-14)">│</text><text class="terminal-3578293381-r4" x="73.2" y="361.6" textLength="817.4" clip-path="url(#terminal-3578293381-line-14)">sudo&#160;python3&#160;/home/student/projects/clab-manager/deploy/apt_lock.py</text><text class="terminal-3578293381-r10" x="915" y="361.6" textLength="12.2" clip-path="url(#terminal-3578293381-line-14)">│</text><text class="terminal-3578293381-r8" x="939.4" y="361.6" textLength="12.2" clip-path="url(#terminal-3578293381-line-14)">│</text><text class="terminal-3578293381-r1" x="976" y="361.6" textLength="12.2" clip-path="url(#terminal-3578293381-line-14)">
</text><text class="terminal-3578293381-r8" x="24.4" y="386" textLength="12.2" clip-path="url(#terminal-3578293381-line-15)">│</text><text class="terminal-3578293381-r10" x="48.8" y="386" textLength="12.2" clip-path="url(#terminal-3578293381-line-15)">│</text><text class="terminal-3578293381-r4" x="73.2" y="386" textLength="256.2" clip-path="url(#terminal-3578293381-line-15)">--wait&#160;--pause-timers</text><text class="terminal-3578293381-r10" x="915" y="386" textLength="12.2" clip-path="url(#terminal-3578293381-line-15)">│</text><text class="terminal-3578293381-r8" x="939.4" y="386" textLength="12.2" clip-path="url(#terminal-3578293381-line-15)">│</text><text class="terminal-3578293381-r1" x="976" y="386" textLength="12.2" clip-path="url(#terminal-3578293381-line-15)">
</text><text class="terminal-3578293381-r8" x="24.4" y="410.4" textLength="12.2" clip-path="url(#terminal-3578293381-line-16)">│</text><text class="terminal-3578293381-r10" x="48.8" y="410.4" textLength="12.2" clip-path="url(#terminal-3578293381-line-16)">│</text><text class="terminal-3578293381-r10" x="915" y="410.4" textLength="12.2" clip-path="url(#terminal-3578293381-line-16)">│</text><text class="terminal-3578293381-r8" x="939.4" y="410.4" textLength="12.2" clip-path="url(#terminal-3578293381-line-16)">│</text><text class="terminal-3578293381-r1" x="976" y="410.4" textLength="12.2" clip-path="url(#terminal-3578293381-line-16)">
</text><text class="terminal-3578293381-r8" x="24.4" y="434.8" textLength="12.2" clip-path="url(#terminal-3578293381-line-17)">│</text><text class="terminal-3578293381-r10" x="48.8" y="434.8" textLength="12.2" clip-path="url(#terminal-3578293381-line-17)">│</text><text class="terminal-3578293381-r12" x="183" y="434.8" textLength="183" clip-path="url(#terminal-3578293381-line-17)">&#160;Wait&#160;for&#160;lock&#160;</text><text class="terminal-3578293381-r6" x="610" y="434.8" textLength="158.6" clip-path="url(#terminal-3578293381-line-17)">&#160;Retry&#160;phase&#160;</text><text class="terminal-3578293381-r10" x="915" y="434.8" textLength="12.2" clip-path="url(#terminal-3578293381-line-17)">│</text><text class="terminal-3578293381-r8" x="939.4" y="434.8" textLength="12.2" clip-path="url(#terminal-3578293381-line-17)">│</text><text class="terminal-3578293381-r1" x="976" y="434.8" textLength="12.2" clip-path="url(#terminal-3578293381-line-17)">
</text><text class="terminal-3578293381-r8" x="24.4" y="459.2" textLength="12.2" clip-path="url(#terminal-3578293381-line-18)">│</text><text class="terminal-3578293381-r10" x="48.8" y="459.2" textLength="12.2" clip-path="url(#terminal-3578293381-line-18)">│</text><text class="terminal-3578293381-r6" x="195.2" y="459.2" textLength="158.6" clip-path="url(#terminal-3578293381-line-18)">&#160;Check&#160;again&#160;</text><text class="terminal-3578293381-r6" x="573.4" y="459.2" textLength="231.8" clip-path="url(#terminal-3578293381-line-18)">&#160;Return,&#160;keep&#160;work&#160;</text><text class="terminal-3578293381-r10" x="915" y="459.2" textLength="12.2" clip-path="url(#terminal-3578293381-line-18)">│</text><text class="terminal-3578293381-r8" x="939.4" y="459.2" textLength="12.2" clip-path="url(#terminal-3578293381-line-18)">│</text><text class="terminal-3578293381-r1" x="976" y="459.2" textLength="12.2" clip-path="url(#terminal-3578293381-line-18)">
</text><text class="terminal-3578293381-r8" x="24.4" y="483.6" textLength="12.2" clip-path="url(#terminal-3578293381-line-19)">│</text><text class="terminal-3578293381-r10" x="48.8" y="483.6" textLength="12.2" clip-path="url(#terminal-3578293381-line-19)">│</text><text class="terminal-3578293381-r6" x="170.8" y="483.6" textLength="195.2" clip-path="url(#terminal-3578293381-line-19)">&#160;Inspect&#160;output&#160;</text><text class="terminal-3578293381-r10" x="915" y="483.6" textLength="12.2" clip-path="url(#terminal-3578293381-line-19)">│</text><text class="terminal-3578293381-r8" x="939.4" y="483.6" textLength="12.2" clip-path="url(#terminal-3578293381-line-19)">│</text><text class="terminal-3578293381-r1" x="976" y="483.6" textLength="12.2" clip-path="url(#terminal-3578293381-line-19)">
</text><text class="terminal-3578293381-r8" x="24.4" y="508" textLength="12.2" clip-path="url(#terminal-3578293381-line-20)">│</text><text class="terminal-3578293381-r10" x="48.8" y="508" textLength="12.2" clip-path="url(#terminal-3578293381-line-20)">╰</text><text class="terminal-3578293381-r10" x="61" y="508" textLength="854" clip-path="url(#terminal-3578293381-line-20)">──────────────────────────────────────────────────────────────────────</text><text class="terminal-3578293381-r10" x="915" y="508" textLength="12.2" clip-path="url(#terminal-3578293381-line-20)">╯</text><text class="terminal-3578293381-r8" x="939.4" y="508" textLength="12.2" clip-path="url(#terminal-3578293381-line-20)">│</text><text class="terminal-3578293381-r1" x="976" y="508" textLength="12.2" clip-path="url(#terminal-3578293381-line-20)">
</text><text class="terminal-3578293381-r8" x="24.4" y="532.4" textLength="12.2" clip-path="url(#terminal-3578293381-line-21)">╰</text><text class="terminal-3578293381-r8" x="36.6" y="532.4" textLength="902.8" clip-path="url(#terminal-3578293381-line-21)">──────────────────────────────────────────────────────────────────────────</text><text class="terminal-3578293381-r8" x="939.4" y="532.4" textLength="12.2" clip-path="url(#terminal-3578293381-line-21)">╯</text><text class="terminal-3578293381-r1" x="976" y="532.4" textLength="12.2" clip-path="url(#terminal-3578293381-line-21)">
</text><text class="terminal-3578293381-r1" x="976" y="556.8" textLength="12.2" clip-path="url(#terminal-3578293381-line-22)">
</text><text class="terminal-3578293381-r13" x="24.4" y="581.2" textLength="61" clip-path="url(#terminal-3578293381-line-23)">&#160;tab&#160;</text><text class="terminal-3578293381-r5" x="85.4" y="581.2" textLength="61" clip-path="url(#terminal-3578293381-line-23)">&#160;next</text><text class="terminal-3578293381-r13" x="158.6" y="581.2" textLength="85.4" clip-path="url(#terminal-3578293381-line-23)">&#160;enter&#160;</text><text class="terminal-3578293381-r5" x="244" y="581.2" textLength="85.4" clip-path="url(#terminal-3578293381-line-23)">&#160;choose</text><text class="terminal-3578293381-r13" x="341.6" y="581.2" textLength="36.6" clip-path="url(#terminal-3578293381-line-23)">&#160;o&#160;</text><text class="terminal-3578293381-r5" x="378.2" y="581.2" textLength="146.4" clip-path="url(#terminal-3578293381-line-23)">&#160;view&#160;output</text><text class="terminal-3578293381-r13" x="536.8" y="581.2" textLength="36.6" clip-path="url(#terminal-3578293381-line-23)">&#160;?&#160;</text><text class="terminal-3578293381-r5" x="573.4" y="581.2" textLength="61" clip-path="url(#terminal-3578293381-line-23)">&#160;help</text>
    </g>
    </g>
</svg>
